<svg id="Layer_1" data-name="Layer 1" xmlns="http://www.w3.org/2000/svg" width="77" height="32" viewBox="0 0 154 64"><title>logo</title><path d="M150 4v56H4V4h146m4-4H0v64h154z"/><path d="M121.45 39.78a7.53 7.53 0 0 1-7.5-7.79v-.07a7.41 7.41 0 0 1 7.43-7.72 7.53 7.53 0 0 1 7.5 7.79v.07a7.41 7.41 0 0 1-7.43 7.72zm-.07 5A12.81 12.81 0 0 0 134.58 32v-.07c0-7-5.49-12.74-13.13-12.74A12.81 12.81 0 0 0 108.24 32v.07c0 7.04 5.49 12.74 13.14 12.74zm-31.4 0a16.08 16.08 0 0 0 10.58-3.93V30.12H89.8v4.71h5.49v3.54a8.69 8.69 0 0 1-5.13 1.49c-4.39 0-7.5-3.33-7.5-7.86v-.07c0-4.21 3.15-7.72 7.12-7.72a9.12 9.12 0 0 1 6.48 2.51l3.43-4.14a13.61 13.61 0 0 0-9.74-3.4 12.72 12.72 0 0 0-13 12.82v.07c0 7.32 5.31 12.74 13.05 12.74zm-33.46-5A7.53 7.53 0 0 1 49 32v-.07a7.41 7.41 0 0 1 7.43-7.72A7.53 7.53 0 0 1 64 32v.07a7.41 7.41 0 0 1-7.48 7.71zm-.07 5A12.81 12.81 0 0 0 69.65 32v-.07c0-7-5.49-12.74-13.13-12.74A12.81 12.81 0 0 0 43.31 32v.07c0 7.04 5.49 12.74 13.14 12.74zm-36.08-.42h17.81v-5H25.82V19.61h-5.45z"/></svg>